<?xml version="1.0" encoding="utf-8" standalone="no"?>
<!DOCTYPE svg PUBLIC "-//W3C//DTD SVG 1.1//EN"
  "http://www.w3.org/Graphics/SVG/1.1/DTD/svg11.dtd">
<!-- Created with matplotlib (https://matplotlib.org/) -->
<svg height="147.10925pt" version="1.1" viewBox="0 0 330.51785 147.10925" width="330.51785pt" xmlns="http://www.w3.org/2000/svg" xmlns:xlink="http://www.w3.org/1999/xlink">
 <defs>
  <style type="text/css">
*{stroke-linecap:butt;stroke-linejoin:round;white-space:pre;}
  </style>
 </defs>
 <g id="figure_1">
  <g id="patch_1">
   <path d="M 0 147.10925 
L 330.51785 147.10925 
L 330.51785 0 
L 0 0 
z
" style="fill:#ffffff;"/>
  </g>
  <g id="axes_1">
   <g id="patch_2">
    <path d="M 48.8975 105.68175 
L 199.5575 105.68175 
L 199.5575 24.14175 
L 48.8975 24.14175 
z
" style="fill:#ffffff;"/>
   </g>
   <g id="matplotlib.axis_1">
    <g id="xtick_1">
     <g id="line2d_1">
      <defs>
       <path d="M 0 0 
L 0 3.5 
" id="m1dc96ddc23" style="stroke:#000000;stroke-width:0.8;"/>
      </defs>
      <g>
       <use style="stroke:#000000;stroke-width:0.8;" x="48.8975" xlink:href="#m1dc96ddc23" y="105.68175"/>
      </g>
     </g>
     <g id="text_1">
      <!-- 0 -->
      <defs>
       <path d="M 31.78125 66.40625 
Q 24.171875 66.40625 20.328125 58.90625 
Q 16.5 51.421875 16.5 36.375 
Q 16.5 21.390625 20.328125 13.890625 
Q 24.171875 6.390625 31.78125 6.390625 
Q 39.453125 6.390625 43.28125 13.890625 
Q 47.125 21.390625 47.125 36.375 
Q 47.125 51.421875 43.28125 58.90625 
Q 39.453125 66.40625 31.78125 66.40625 
z
M 31.78125 74.21875 
Q 44.046875 74.21875 50.515625 64.515625 
Q 56.984375 54.828125 56.984375 36.375 
Q 56.984375 17.96875 50.515625 8.265625 
Q 44.046875 -1.421875 31.78125 -1.421875 
Q 19.53125 -1.421875 13.0625 8.265625 
Q 6.59375 17.96875 6.59375 36.375 
Q 6.59375 54.828125 13.0625 64.515625 
Q 19.53125 74.21875 31.78125 74.21875 
z
" id="DejaVuSans-48"/>
      </defs>
      <g transform="translate(45.08 121.799875)scale(0.12 -0.12)">
       <use xlink:href="#DejaVuSans-48"/>
      </g>
     </g>
    </g>
    <g id="xtick_2">
     <g id="line2d_2">
      <g>
       <use style="stroke:#000000;stroke-width:0.8;" x="86.5625" xlink:href="#m1dc96ddc23" y="105.68175"/>
      </g>
     </g>
     <g id="text_2">
      <!-- 5 -->
      <defs>
       <path d="M 10.796875 72.90625 
L 49.515625 72.90625 
L 49.515625 64.59375 
L 19.828125 64.59375 
L 19.828125 46.734375 
Q 21.96875 47.46875 24.109375 47.828125 
Q 26.265625 48.1875 28.421875 48.1875 
Q 40.625 48.1875 47.75 41.5 
Q 54.890625 34.8125 54.890625 23.390625 
Q 54.890625 11.625 47.5625 5.09375 
Q 40.234375 -1.421875 26.90625 -1.421875 
Q 22.3125 -1.421875 17.546875 -0.640625 
Q 12.796875 0.140625 7.71875 1.703125 
L 7.71875 11.625 
Q 12.109375 9.234375 16.796875 8.0625 
Q 21.484375 6.890625 26.703125 6.890625 
Q 35.15625 6.890625 40.078125 11.328125 
Q 45.015625 15.765625 45.015625 23.390625 
Q 45.015625 31 40.078125 35.4375 
Q 35.15625 39.890625 26.703125 39.890625 
Q 22.75 39.890625 18.8125 39.015625 
Q 14.890625 38.140625 10.796875 36.28125 
z
" id="DejaVuSans-53"/>
      </defs>
      <g transform="translate(82.745 121.799875)scale(0.12 -0.12)">
       <use xlink:href="#DejaVuSans-53"/>
      </g>
     </g>
    </g>
    <g id="xtick_3">
     <g id="line2d_3">
      <g>
       <use style="stroke:#000000;stroke-width:0.8;" x="124.2275" xlink:href="#m1dc96ddc23" y="105.68175"/>
      </g>
     </g>
     <g id="text_3">
      <!-- 10 -->
      <defs>
       <path d="M 12.40625 8.296875 
L 28.515625 8.296875 
L 28.515625 63.921875 
L 10.984375 60.40625 
L 10.984375 69.390625 
L 28.421875 72.90625 
L 38.28125 72.90625 
L 38.28125 8.296875 
L 54.390625 8.296875 
L 54.390625 0 
L 12.40625 0 
z
" id="DejaVuSans-49"/>
      </defs>
      <g transform="translate(116.5925 121.799875)scale(0.12 -0.12)">
       <use xlink:href="#DejaVuSans-49"/>
       <use x="63.623047" xlink:href="#DejaVuSans-48"/>
      </g>
     </g>
    </g>
    <g id="xtick_4">
     <g id="line2d_4">
      <g>
       <use style="stroke:#000000;stroke-width:0.8;" x="161.8925" xlink:href="#m1dc96ddc23" y="105.68175"/>
      </g>
     </g>
     <g id="text_4">
      <!-- 15 -->
      <g transform="translate(154.2575 121.799875)scale(0.12 -0.12)">
       <use xlink:href="#DejaVuSans-49"/>
       <use x="63.623047" xlink:href="#DejaVuSans-53"/>
      </g>
     </g>
    </g>
    <g id="xtick_5">
     <g id="line2d_5">
      <g>
       <use style="stroke:#000000;stroke-width:0.8;" x="199.5575" xlink:href="#m1dc96ddc23" y="105.68175"/>
      </g>
     </g>
     <g id="text_5">
      <!-- 20 -->
      <defs>
       <path d="M 19.1875 8.296875 
L 53.609375 8.296875 
L 53.609375 0 
L 7.328125 0 
L 7.328125 8.296875 
Q 12.9375 14.109375 22.625 23.890625 
Q 32.328125 33.6875 34.8125 36.53125 
Q 39.546875 41.84375 41.421875 45.53125 
Q 43.3125 49.21875 43.3125 52.78125 
Q 43.3125 58.59375 39.234375 62.25 
Q 35.15625 65.921875 28.609375 65.921875 
Q 23.96875 65.921875 18.8125 64.3125 
Q 13.671875 62.703125 7.8125 59.421875 
L 7.8125 69.390625 
Q 13.765625 71.78125 18.9375 73 
Q 24.125 74.21875 28.421875 74.21875 
Q 39.75 74.21875 46.484375 68.546875 
Q 53.21875 62.890625 53.21875 53.421875 
Q 53.21875 48.921875 51.53125 44.890625 
Q 49.859375 40.875 45.40625 35.40625 
Q 44.1875 33.984375 37.640625 27.21875 
Q 31.109375 20.453125 19.1875 8.296875 
z
" id="DejaVuSans-50"/>
      </defs>
      <g transform="translate(191.9225 121.799875)scale(0.12 -0.12)">
       <use xlink:href="#DejaVuSans-50"/>
       <use x="63.623047" xlink:href="#DejaVuSans-48"/>
      </g>
     </g>
    </g>
    <g id="text_6">
     <!-- Time -->
     <defs>
      <path d="M -0.296875 72.90625 
L 61.375 72.90625 
L 61.375 64.59375 
L 35.5 64.59375 
L 35.5 0 
L 25.59375 0 
L 25.59375 64.59375 
L -0.296875 64.59375 
z
" id="DejaVuSans-84"/>
      <path d="M 9.421875 54.6875 
L 18.40625 54.6875 
L 18.40625 0 
L 9.421875 0 
z
M 9.421875 75.984375 
L 18.40625 75.984375 
L 18.40625 64.59375 
L 9.421875 64.59375 
z
" id="DejaVuSans-105"/>
      <path d="M 52 44.1875 
Q 55.375 50.25 60.0625 53.125 
Q 64.75 56 71.09375 56 
Q 79.640625 56 84.28125 50.015625 
Q 88.921875 44.046875 88.921875 33.015625 
L 88.921875 0 
L 79.890625 0 
L 79.890625 32.71875 
Q 79.890625 40.578125 77.09375 44.375 
Q 74.3125 48.1875 68.609375 48.1875 
Q 61.625 48.1875 57.5625 43.546875 
Q 53.515625 38.921875 53.515625 30.90625 
L 53.515625 0 
L 44.484375 0 
L 44.484375 32.71875 
Q 44.484375 40.625 41.703125 44.40625 
Q 38.921875 48.1875 33.109375 48.1875 
Q 26.21875 48.1875 22.15625 43.53125 
Q 18.109375 38.875 18.109375 30.90625 
L 18.109375 0 
L 9.078125 0 
L 9.078125 54.6875 
L 18.109375 54.6875 
L 18.109375 46.1875 
Q 21.1875 51.21875 25.484375 53.609375 
Q 29.78125 56 35.6875 56 
Q 41.65625 56 45.828125 52.96875 
Q 50 49.953125 52 44.1875 
z
" id="DejaVuSans-109"/>
      <path d="M 56.203125 29.59375 
L 56.203125 25.203125 
L 14.890625 25.203125 
Q 15.484375 15.921875 20.484375 11.0625 
Q 25.484375 6.203125 34.421875 6.203125 
Q 39.59375 6.203125 44.453125 7.46875 
Q 49.3125 8.734375 54.109375 11.28125 
L 54.109375 2.78125 
Q 49.265625 0.734375 44.1875 -0.34375 
Q 39.109375 -1.421875 33.890625 -1.421875 
Q 20.796875 -1.421875 13.15625 6.1875 
Q 5.515625 13.8125 5.515625 26.8125 
Q 5.515625 40.234375 12.765625 48.109375 
Q 20.015625 56 32.328125 56 
Q 43.359375 56 49.78125 48.890625 
Q 56.203125 41.796875 56.203125 29.59375 
z
M 47.21875 32.234375 
Q 47.125 39.59375 43.09375 43.984375 
Q 39.0625 48.390625 32.421875 48.390625 
Q 24.90625 48.390625 20.390625 44.140625 
Q 15.875 39.890625 15.1875 32.171875 
z
" id="DejaVuSans-101"/>
     </defs>
     <g transform="translate(109.3625 137.413625)scale(0.12 -0.12)">
      <use xlink:href="#DejaVuSans-84"/>
      <use x="61.037109" xlink:href="#DejaVuSans-105"/>
      <use x="88.820312" xlink:href="#DejaVuSans-109"/>
      <use x="186.232422" xlink:href="#DejaVuSans-101"/>
     </g>
    </g>
   </g>
   <g id="matplotlib.axis_2">
    <g id="ytick_1">
     <g id="line2d_6">
      <defs>
       <path d="M 0 0 
L -3.5 0 
" id="m62f6c2fd65" style="stroke:#000000;stroke-width:0.8;"/>
      </defs>
      <g>
       <use style="stroke:#000000;stroke-width:0.8;" x="48.8975" xlink:href="#m62f6c2fd65" y="101.975386"/>
      </g>
     </g>
     <g id="text_7">
      <!-- 0.0 -->
      <defs>
       <path d="M 10.6875 12.40625 
L 21 12.40625 
L 21 0 
L 10.6875 0 
z
" id="DejaVuSans-46"/>
      </defs>
      <g transform="translate(22.81375 106.534449)scale(0.12 -0.12)">
       <use xlink:href="#DejaVuSans-48"/>
       <use x="63.623047" xlink:href="#DejaVuSans-46"/>
       <use x="95.410156" xlink:href="#DejaVuSans-48"/>
      </g>
     </g>
    </g>
    <g id="ytick_2">
     <g id="line2d_7">
      <g>
       <use style="stroke:#000000;stroke-width:0.8;" x="48.8975" xlink:href="#m62f6c2fd65" y="64.91175"/>
      </g>
     </g>
     <g id="text_8">
      <!-- 0.5 -->
      <g transform="translate(22.81375 69.470813)scale(0.12 -0.12)">
       <use xlink:href="#DejaVuSans-48"/>
       <use x="63.623047" xlink:href="#DejaVuSans-46"/>
       <use x="95.410156" xlink:href="#DejaVuSans-53"/>
      </g>
     </g>
    </g>
    <g id="ytick_3">
     <g id="line2d_8">
      <g>
       <use style="stroke:#000000;stroke-width:0.8;" x="48.8975" xlink:href="#m62f6c2fd65" y="27.848114"/>
      </g>
     </g>
     <g id="text_9">
      <!-- 1.0 -->
      <g transform="translate(22.81375 32.407176)scale(0.12 -0.12)">
       <use xlink:href="#DejaVuSans-49"/>
       <use x="63.623047" xlink:href="#DejaVuSans-46"/>
       <use x="95.410156" xlink:href="#DejaVuSans-48"/>
      </g>
     </g>
    </g>
    <g id="text_10">
     <!-- Node activity -->
     <defs>
      <path d="M 9.8125 72.90625 
L 23.09375 72.90625 
L 55.421875 11.921875 
L 55.421875 72.90625 
L 64.984375 72.90625 
L 64.984375 0 
L 51.703125 0 
L 19.390625 60.984375 
L 19.390625 0 
L 9.8125 0 
z
" id="DejaVuSans-78"/>
      <path d="M 30.609375 48.390625 
Q 23.390625 48.390625 19.1875 42.75 
Q 14.984375 37.109375 14.984375 27.296875 
Q 14.984375 17.484375 19.15625 11.84375 
Q 23.34375 6.203125 30.609375 6.203125 
Q 37.796875 6.203125 41.984375 11.859375 
Q 46.1875 17.53125 46.1875 27.296875 
Q 46.1875 37.015625 41.984375 42.703125 
Q 37.796875 48.390625 30.609375 48.390625 
z
M 30.609375 56 
Q 42.328125 56 49.015625 48.375 
Q 55.71875 40.765625 55.71875 27.296875 
Q 55.71875 13.875 49.015625 6.21875 
Q 42.328125 -1.421875 30.609375 -1.421875 
Q 18.84375 -1.421875 12.171875 6.21875 
Q 5.515625 13.875 5.515625 27.296875 
Q 5.515625 40.765625 12.171875 48.375 
Q 18.84375 56 30.609375 56 
z
" id="DejaVuSans-111"/>
      <path d="M 45.40625 46.390625 
L 45.40625 75.984375 
L 54.390625 75.984375 
L 54.390625 0 
L 45.40625 0 
L 45.40625 8.203125 
Q 42.578125 3.328125 38.25 0.953125 
Q 33.9375 -1.421875 27.875 -1.421875 
Q 17.96875 -1.421875 11.734375 6.484375 
Q 5.515625 14.40625 5.515625 27.296875 
Q 5.515625 40.1875 11.734375 48.09375 
Q 17.96875 56 27.875 56 
Q 33.9375 56 38.25 53.625 
Q 42.578125 51.265625 45.40625 46.390625 
z
M 14.796875 27.296875 
Q 14.796875 17.390625 18.875 11.75 
Q 22.953125 6.109375 30.078125 6.109375 
Q 37.203125 6.109375 41.296875 11.75 
Q 45.40625 17.390625 45.40625 27.296875 
Q 45.40625 37.203125 41.296875 42.84375 
Q 37.203125 48.484375 30.078125 48.484375 
Q 22.953125 48.484375 18.875 42.84375 
Q 14.796875 37.203125 14.796875 27.296875 
z
" id="DejaVuSans-100"/>
      <path id="DejaVuSans-32"/>
      <path d="M 34.28125 27.484375 
Q 23.390625 27.484375 19.1875 25 
Q 14.984375 22.515625 14.984375 16.5 
Q 14.984375 11.71875 18.140625 8.90625 
Q 21.296875 6.109375 26.703125 6.109375 
Q 34.1875 6.109375 38.703125 11.40625 
Q 43.21875 16.703125 43.21875 25.484375 
L 43.21875 27.484375 
z
M 52.203125 31.203125 
L 52.203125 0 
L 43.21875 0 
L 43.21875 8.296875 
Q 40.140625 3.328125 35.546875 0.953125 
Q 30.953125 -1.421875 24.3125 -1.421875 
Q 15.921875 -1.421875 10.953125 3.296875 
Q 6 8.015625 6 15.921875 
Q 6 25.140625 12.171875 29.828125 
Q 18.359375 34.515625 30.609375 34.515625 
L 43.21875 34.515625 
L 43.21875 35.40625 
Q 43.21875 41.609375 39.140625 45 
Q 35.0625 48.390625 27.6875 48.390625 
Q 23 48.390625 18.546875 47.265625 
Q 14.109375 46.140625 10.015625 43.890625 
L 10.015625 52.203125 
Q 14.9375 54.109375 19.578125 55.046875 
Q 24.21875 56 28.609375 56 
Q 40.484375 56 46.34375 49.84375 
Q 52.203125 43.703125 52.203125 31.203125 
z
" id="DejaVuSans-97"/>
      <path d="M 48.78125 52.59375 
L 48.78125 44.1875 
Q 44.96875 46.296875 41.140625 47.34375 
Q 37.3125 48.390625 33.40625 48.390625 
Q 24.65625 48.390625 19.8125 42.84375 
Q 14.984375 37.3125 14.984375 27.296875 
Q 14.984375 17.28125 19.8125 11.734375 
Q 24.65625 6.203125 33.40625 6.203125 
Q 37.3125 6.203125 41.140625 7.25 
Q 44.96875 8.296875 48.78125 10.40625 
L 48.78125 2.09375 
Q 45.015625 0.34375 40.984375 -0.53125 
Q 36.96875 -1.421875 32.421875 -1.421875 
Q 20.0625 -1.421875 12.78125 6.34375 
Q 5.515625 14.109375 5.515625 27.296875 
Q 5.515625 40.671875 12.859375 48.328125 
Q 20.21875 56 33.015625 56 
Q 37.15625 56 41.109375 55.140625 
Q 45.0625 54.296875 48.78125 52.59375 
z
" id="DejaVuSans-99"/>
      <path d="M 18.3125 70.21875 
L 18.3125 54.6875 
L 36.8125 54.6875 
L 36.8125 47.703125 
L 18.3125 47.703125 
L 18.3125 18.015625 
Q 18.3125 11.328125 20.140625 9.421875 
Q 21.96875 7.515625 27.59375 7.515625 
L 36.8125 7.515625 
L 36.8125 0 
L 27.59375 0 
Q 17.1875 0 13.234375 3.875 
Q 9.28125 7.765625 9.28125 18.015625 
L 9.28125 47.703125 
L 2.6875 47.703125 
L 2.6875 54.6875 
L 9.28125 54.6875 
L 9.28125 70.21875 
z
" id="DejaVuSans-116"/>
      <path d="M 2.984375 54.6875 
L 12.5 54.6875 
L 29.59375 8.796875 
L 46.6875 54.6875 
L 56.203125 54.6875 
L 35.6875 0 
L 23.484375 0 
z
" id="DejaVuSans-118"/>
      <path d="M 32.171875 -5.078125 
Q 28.375 -14.84375 24.75 -17.8125 
Q 21.140625 -20.796875 15.09375 -20.796875 
L 7.90625 -20.796875 
L 7.90625 -13.28125 
L 13.1875 -13.28125 
Q 16.890625 -13.28125 18.9375 -11.515625 
Q 21 -9.765625 23.484375 -3.21875 
L 25.09375 0.875 
L 2.984375 54.6875 
L 12.5 54.6875 
L 29.59375 11.921875 
L 46.6875 54.6875 
L 56.203125 54.6875 
z
" id="DejaVuSans-121"/>
     </defs>
     <g transform="translate(16.318125 104.596125)rotate(-90)scale(0.12 -0.12)">
      <use xlink:href="#DejaVuSans-78"/>
      <use x="74.804688" xlink:href="#DejaVuSans-111"/>
      <use x="135.986328" xlink:href="#DejaVuSans-100"/>
      <use x="199.462891" xlink:href="#DejaVuSans-101"/>
      <use x="260.986328" xlink:href="#DejaVuSans-32"/>
      <use x="292.773438" xlink:href="#DejaVuSans-97"/>
      <use x="354.052734" xlink:href="#DejaVuSans-99"/>
      <use x="409.033203" xlink:href="#DejaVuSans-116"/>
      <use x="448.242188" xlink:href="#DejaVuSans-105"/>
      <use x="476.025391" xlink:href="#DejaVuSans-118"/>
      <use x="535.205078" xlink:href="#DejaVuSans-105"/>
      <use x="562.988281" xlink:href="#DejaVuSans-116"/>
      <use x="602.197266" xlink:href="#DejaVuSans-121"/>
     </g>
    </g>
   </g>
   <g id="line2d_9">
    <path clip-path="url(#pb25e149621)" d="M 48.8975 27.848114 
L 53.481639 27.848114 
L 58.065778 27.885177 
L 62.649916 29.886614 
L 67.234055 33.963614 
L 71.818194 39.671414 
L 76.402333 43.859605 
L 80.986472 46.528186 
L 85.57061 47.528905 
L 90.154749 46.194614 
L 94.738888 44.749132 
L 99.323027 43.822541 
L 103.907165 43.266586 
L 108.491304 43.118332 
L 113.075443 43.859605 
L 117.659582 45.712786 
L 122.243721 47.862477 
L 126.827859 50.345741 
L 131.411998 53.051386 
L 135.996137 54.459805 
L 140.580276 56.646559 
L 145.164415 58.462677 
L 149.748553 59.982286 
L 154.332692 61.020068 
L 158.916831 61.687214 
L 163.50097 62.46555 
L 168.085109 62.910314 
L 172.669247 63.466268 
L 177.253386 63.911032 
L 181.837525 64.207541 
L 186.421664 64.318732 
L 191.005802 64.466986 
L 195.589941 64.541114 
L 200.17408 64.726432 
L 204.758219 64.763495 
L 209.342358 64.800559 
L 213.926496 64.800559 
L 218.510635 64.874686 
L 223.094774 64.874686 
L 227.678913 64.874686 
L 232.263052 64.874686 
L 236.84719 64.91175 
" style="fill:none;stroke:#bebada;stroke-linecap:square;stroke-width:2;"/>
    <defs>
     <path d="M -2.5 2.5 
L 2.5 2.5 
L 2.5 -2.5 
L -2.5 -2.5 
z
" id="m61814a4a46" style="stroke:#000000;stroke-linejoin:miter;stroke-width:0.5;"/>
    </defs>
    <g clip-path="url(#pb25e149621)">
     <use style="fill:#bebada;stroke:#000000;stroke-linejoin:miter;stroke-width:0.5;" x="48.8975" xlink:href="#m61814a4a46" y="27.848114"/>
     <use style="fill:#bebada;stroke:#000000;stroke-linejoin:miter;stroke-width:0.5;" x="53.481639" xlink:href="#m61814a4a46" y="27.848114"/>
     <use style="fill:#bebada;stroke:#000000;stroke-linejoin:miter;stroke-width:0.5;" x="58.065778" xlink:href="#m61814a4a46" y="27.885177"/>
     <use style="fill:#bebada;stroke:#000000;stroke-linejoin:miter;stroke-width:0.5;" x="62.649916" xlink:href="#m61814a4a46" y="29.886614"/>
     <use style="fill:#bebada;stroke:#000000;stroke-linejoin:miter;stroke-width:0.5;" x="67.234055" xlink:href="#m61814a4a46" y="33.963614"/>
     <use style="fill:#bebada;stroke:#000000;stroke-linejoin:miter;stroke-width:0.5;" x="71.818194" xlink:href="#m61814a4a46" y="39.671414"/>
     <use style="fill:#bebada;stroke:#000000;stroke-linejoin:miter;stroke-width:0.5;" x="76.402333" xlink:href="#m61814a4a46" y="43.859605"/>
     <use style="fill:#bebada;stroke:#000000;stroke-linejoin:miter;stroke-width:0.5;" x="80.986472" xlink:href="#m61814a4a46" y="46.528186"/>
     <use style="fill:#bebada;stroke:#000000;stroke-linejoin:miter;stroke-width:0.5;" x="85.57061" xlink:href="#m61814a4a46" y="47.528905"/>
     <use style="fill:#bebada;stroke:#000000;stroke-linejoin:miter;stroke-width:0.5;" x="90.154749" xlink:href="#m61814a4a46" y="46.194614"/>
     <use style="fill:#bebada;stroke:#000000;stroke-linejoin:miter;stroke-width:0.5;" x="94.738888" xlink:href="#m61814a4a46" y="44.749132"/>
     <use style="fill:#bebada;stroke:#000000;stroke-linejoin:miter;stroke-width:0.5;" x="99.323027" xlink:href="#m61814a4a46" y="43.822541"/>
     <use style="fill:#bebada;stroke:#000000;stroke-linejoin:miter;stroke-width:0.5;" x="103.907165" xlink:href="#m61814a4a46" y="43.266586"/>
     <use style="fill:#bebada;stroke:#000000;stroke-linejoin:miter;stroke-width:0.5;" x="108.491304" xlink:href="#m61814a4a46" y="43.118332"/>
     <use style="fill:#bebada;stroke:#000000;stroke-linejoin:miter;stroke-width:0.5;" x="113.075443" xlink:href="#m61814a4a46" y="43.859605"/>
     <use style="fill:#bebada;stroke:#000000;stroke-linejoin:miter;stroke-width:0.5;" x="117.659582" xlink:href="#m61814a4a46" y="45.712786"/>
     <use style="fill:#bebada;stroke:#000000;stroke-linejoin:miter;stroke-width:0.5;" x="122.243721" xlink:href="#m61814a4a46" y="47.862477"/>
     <use style="fill:#bebada;stroke:#000000;stroke-linejoin:miter;stroke-width:0.5;" x="126.827859" xlink:href="#m61814a4a46" y="50.345741"/>
     <use style="fill:#bebada;stroke:#000000;stroke-linejoin:miter;stroke-width:0.5;" x="131.411998" xlink:href="#m61814a4a46" y="53.051386"/>
     <use style="fill:#bebada;stroke:#000000;stroke-linejoin:miter;stroke-width:0.5;" x="135.996137" xlink:href="#m61814a4a46" y="54.459805"/>
     <use style="fill:#bebada;stroke:#000000;stroke-linejoin:miter;stroke-width:0.5;" x="140.580276" xlink:href="#m61814a4a46" y="56.646559"/>
     <use style="fill:#bebada;stroke:#000000;stroke-linejoin:miter;stroke-width:0.5;" x="145.164415" xlink:href="#m61814a4a46" y="58.462677"/>
     <use style="fill:#bebada;stroke:#000000;stroke-linejoin:miter;stroke-width:0.5;" x="149.748553" xlink:href="#m61814a4a46" y="59.982286"/>
     <use style="fill:#bebada;stroke:#000000;stroke-linejoin:miter;stroke-width:0.5;" x="154.332692" xlink:href="#m61814a4a46" y="61.020068"/>
     <use style="fill:#bebada;stroke:#000000;stroke-linejoin:miter;stroke-width:0.5;" x="158.916831" xlink:href="#m61814a4a46" y="61.687214"/>
     <use style="fill:#bebada;stroke:#000000;stroke-linejoin:miter;stroke-width:0.5;" x="163.50097" xlink:href="#m61814a4a46" y="62.46555"/>
     <use style="fill:#bebada;stroke:#000000;stroke-linejoin:miter;stroke-width:0.5;" x="168.085109" xlink:href="#m61814a4a46" y="62.910314"/>
     <use style="fill:#bebada;stroke:#000000;stroke-linejoin:miter;stroke-width:0.5;" x="172.669247" xlink:href="#m61814a4a46" y="63.466268"/>
     <use style="fill:#bebada;stroke:#000000;stroke-linejoin:miter;stroke-width:0.5;" x="177.253386" xlink:href="#m61814a4a46" y="63.911032"/>
     <use style="fill:#bebada;stroke:#000000;stroke-linejoin:miter;stroke-width:0.5;" x="181.837525" xlink:href="#m61814a4a46" y="64.207541"/>
     <use style="fill:#bebada;stroke:#000000;stroke-linejoin:miter;stroke-width:0.5;" x="186.421664" xlink:href="#m61814a4a46" y="64.318732"/>
     <use style="fill:#bebada;stroke:#000000;stroke-linejoin:miter;stroke-width:0.5;" x="191.005802" xlink:href="#m61814a4a46" y="64.466986"/>
     <use style="fill:#bebada;stroke:#000000;stroke-linejoin:miter;stroke-width:0.5;" x="195.589941" xlink:href="#m61814a4a46" y="64.541114"/>
     <use style="fill:#bebada;stroke:#000000;stroke-linejoin:miter;stroke-width:0.5;" x="200.17408" xlink:href="#m61814a4a46" y="64.726432"/>
     <use style="fill:#bebada;stroke:#000000;stroke-linejoin:miter;stroke-width:0.5;" x="204.758219" xlink:href="#m61814a4a46" y="64.763495"/>
     <use style="fill:#bebada;stroke:#000000;stroke-linejoin:miter;stroke-width:0.5;" x="209.342358" xlink:href="#m61814a4a46" y="64.800559"/>
     <use style="fill:#bebada;stroke:#000000;stroke-linejoin:miter;stroke-width:0.5;" x="213.926496" xlink:href="#m61814a4a46" y="64.800559"/>
     <use style="fill:#bebada;stroke:#000000;stroke-linejoin:miter;stroke-width:0.5;" x="218.510635" xlink:href="#m61814a4a46" y="64.874686"/>
     <use style="fill:#bebada;stroke:#000000;stroke-linejoin:miter;stroke-width:0.5;" x="223.094774" xlink:href="#m61814a4a46" y="64.874686"/>
     <use style="fill:#bebada;stroke:#000000;stroke-linejoin:miter;stroke-width:0.5;" x="227.678913" xlink:href="#m61814a4a46" y="64.874686"/>
     <use style="fill:#bebada;stroke:#000000;stroke-linejoin:miter;stroke-width:0.5;" x="232.263052" xlink:href="#m61814a4a46" y="64.874686"/>
     <use style="fill:#bebada;stroke:#000000;stroke-linejoin:miter;stroke-width:0.5;" x="236.84719" xlink:href="#m61814a4a46" y="64.91175"/>
    </g>
   </g>
   <g id="line2d_10">
    <path clip-path="url(#pb25e149621)" d="M 48.8975 27.848114 
L 53.481639 27.848114 
L 58.065778 27.848114 
L 62.649916 27.848114 
L 67.234055 27.848114 
L 71.818194 27.848114 
L 76.402333 27.848114 
L 80.986472 27.848114 
L 85.57061 27.848114 
L 90.154749 27.848114 
L 94.738888 27.848114 
L 99.323027 27.848114 
L 103.907165 27.848114 
L 108.491304 27.848114 
L 113.075443 27.848114 
L 117.659582 27.848114 
L 122.243721 27.848114 
L 126.827859 27.848114 
L 131.411998 27.848114 
L 135.996137 27.848114 
L 140.580276 27.848114 
L 145.164415 27.848114 
L 149.748553 27.848114 
L 154.332692 27.848114 
L 158.916831 27.848114 
L 163.50097 27.848114 
L 168.085109 27.848114 
L 172.669247 27.848114 
L 177.253386 27.848114 
L 181.837525 27.848114 
L 186.421664 27.848114 
L 191.005802 27.848114 
L 195.589941 27.848114 
L 200.17408 27.848114 
L 204.758219 27.848114 
L 209.342358 27.848114 
L 213.926496 27.848114 
L 218.510635 27.848114 
L 223.094774 27.848114 
L 227.678913 27.848114 
L 232.263052 27.848114 
L 236.84719 27.848114 
" style="fill:none;stroke:#bebada;stroke-linecap:square;stroke-width:2;"/>
    <defs>
     <path d="M -2.5 -0 
L 2.5 2.5 
L 2.5 -2.5 
z
" id="mb7b3f5de87" style="stroke:#000000;stroke-linejoin:miter;stroke-width:0.5;"/>
    </defs>
    <g clip-path="url(#pb25e149621)">
     <use style="fill:#bebada;stroke:#000000;stroke-linejoin:miter;stroke-width:0.5;" x="48.8975" xlink:href="#mb7b3f5de87" y="27.848114"/>
     <use style="fill:#bebada;stroke:#000000;stroke-linejoin:miter;stroke-width:0.5;" x="53.481639" xlink:href="#mb7b3f5de87" y="27.848114"/>
     <use style="fill:#bebada;stroke:#000000;stroke-linejoin:miter;stroke-width:0.5;" x="58.065778" xlink:href="#mb7b3f5de87" y="27.848114"/>
     <use style="fill:#bebada;stroke:#000000;stroke-linejoin:miter;stroke-width:0.5;" x="62.649916" xlink:href="#mb7b3f5de87" y="27.848114"/>
     <use style="fill:#bebada;stroke:#000000;stroke-linejoin:miter;stroke-width:0.5;" x="67.234055" xlink:href="#mb7b3f5de87" y="27.848114"/>
     <use style="fill:#bebada;stroke:#000000;stroke-linejoin:miter;stroke-width:0.5;" x="71.818194" xlink:href="#mb7b3f5de87" y="27.848114"/>
     <use style="fill:#bebada;stroke:#000000;stroke-linejoin:miter;stroke-width:0.5;" x="76.402333" xlink:href="#mb7b3f5de87" y="27.848114"/>
     <use style="fill:#bebada;stroke:#000000;stroke-linejoin:miter;stroke-width:0.5;" x="80.986472" xlink:href="#mb7b3f5de87" y="27.848114"/>
     <use style="fill:#bebada;stroke:#000000;stroke-linejoin:miter;stroke-width:0.5;" x="85.57061" xlink:href="#mb7b3f5de87" y="27.848114"/>
     <use style="fill:#bebada;stroke:#000000;stroke-linejoin:miter;stroke-width:0.5;" x="90.154749" xlink:href="#mb7b3f5de87" y="27.848114"/>
     <use style="fill:#bebada;stroke:#000000;stroke-linejoin:miter;stroke-width:0.5;" x="94.738888" xlink:href="#mb7b3f5de87" y="27.848114"/>
     <use style="fill:#bebada;stroke:#000000;stroke-linejoin:miter;stroke-width:0.5;" x="99.323027" xlink:href="#mb7b3f5de87" y="27.848114"/>
     <use style="fill:#bebada;stroke:#000000;stroke-linejoin:miter;stroke-width:0.5;" x="103.907165" xlink:href="#mb7b3f5de87" y="27.848114"/>
     <use style="fill:#bebada;stroke:#000000;stroke-linejoin:miter;stroke-width:0.5;" x="108.491304" xlink:href="#mb7b3f5de87" y="27.848114"/>
     <use style="fill:#bebada;stroke:#000000;stroke-linejoin:miter;stroke-width:0.5;" x="113.075443" xlink:href="#mb7b3f5de87" y="27.848114"/>
     <use style="fill:#bebada;stroke:#000000;stroke-linejoin:miter;stroke-width:0.5;" x="117.659582" xlink:href="#mb7b3f5de87" y="27.848114"/>
     <use style="fill:#bebada;stroke:#000000;stroke-linejoin:miter;stroke-width:0.5;" x="122.243721" xlink:href="#mb7b3f5de87" y="27.848114"/>
     <use style="fill:#bebada;stroke:#000000;stroke-linejoin:miter;stroke-width:0.5;" x="126.827859" xlink:href="#mb7b3f5de87" y="27.848114"/>
     <use style="fill:#bebada;stroke:#000000;stroke-linejoin:miter;stroke-width:0.5;" x="131.411998" xlink:href="#mb7b3f5de87" y="27.848114"/>
     <use style="fill:#bebada;stroke:#000000;stroke-linejoin:miter;stroke-width:0.5;" x="135.996137" xlink:href="#mb7b3f5de87" y="27.848114"/>
     <use style="fill:#bebada;stroke:#000000;stroke-linejoin:miter;stroke-width:0.5;" x="140.580276" xlink:href="#mb7b3f5de87" y="27.848114"/>
     <use style="fill:#bebada;stroke:#000000;stroke-linejoin:miter;stroke-width:0.5;" x="145.164415" xlink:href="#mb7b3f5de87" y="27.848114"/>
     <use style="fill:#bebada;stroke:#000000;stroke-linejoin:miter;stroke-width:0.5;" x="149.748553" xlink:href="#mb7b3f5de87" y="27.848114"/>
     <use style="fill:#bebada;stroke:#000000;stroke-linejoin:miter;stroke-width:0.5;" x="154.332692" xlink:href="#mb7b3f5de87" y="27.848114"/>
     <use style="fill:#bebada;stroke:#000000;stroke-linejoin:miter;stroke-width:0.5;" x="158.916831" xlink:href="#mb7b3f5de87" y="27.848114"/>
     <use style="fill:#bebada;stroke:#000000;stroke-linejoin:miter;stroke-width:0.5;" x="163.50097" xlink:href="#mb7b3f5de87" y="27.848114"/>
     <use style="fill:#bebada;stroke:#000000;stroke-linejoin:miter;stroke-width:0.5;" x="168.085109" xlink:href="#mb7b3f5de87" y="27.848114"/>
     <use style="fill:#bebada;stroke:#000000;stroke-linejoin:miter;stroke-width:0.5;" x="172.669247" xlink:href="#mb7b3f5de87" y="27.848114"/>
     <use style="fill:#bebada;stroke:#000000;stroke-linejoin:miter;stroke-width:0.5;" x="177.253386" xlink:href="#mb7b3f5de87" y="27.848114"/>
     <use style="fill:#bebada;stroke:#000000;stroke-linejoin:miter;stroke-width:0.5;" x="181.837525" xlink:href="#mb7b3f5de87" y="27.848114"/>
     <use style="fill:#bebada;stroke:#000000;stroke-linejoin:miter;stroke-width:0.5;" x="186.421664" xlink:href="#mb7b3f5de87" y="27.848114"/>
     <use style="fill:#bebada;stroke:#000000;stroke-linejoin:miter;stroke-width:0.5;" x="191.005802" xlink:href="#mb7b3f5de87" y="27.848114"/>
     <use style="fill:#bebada;stroke:#000000;stroke-linejoin:miter;stroke-width:0.5;" x="195.589941" xlink:href="#mb7b3f5de87" y="27.848114"/>
     <use style="fill:#bebada;stroke:#000000;stroke-linejoin:miter;stroke-width:0.5;" x="200.17408" xlink:href="#mb7b3f5de87" y="27.848114"/>
     <use style="fill:#bebada;stroke:#000000;stroke-linejoin:miter;stroke-width:0.5;" x="204.758219" xlink:href="#mb7b3f5de87" y="27.848114"/>
     <use style="fill:#bebada;stroke:#000000;stroke-linejoin:miter;stroke-width:0.5;" x="209.342358" xlink:href="#mb7b3f5de87" y="27.848114"/>
     <use style="fill:#bebada;stroke:#000000;stroke-linejoin:miter;stroke-width:0.5;" x="213.926496" xlink:href="#mb7b3f5de87" y="27.848114"/>
     <use style="fill:#bebada;stroke:#000000;stroke-linejoin:miter;stroke-width:0.5;" x="218.510635" xlink:href="#mb7b3f5de87" y="27.848114"/>
     <use style="fill:#bebada;stroke:#000000;stroke-linejoin:miter;stroke-width:0.5;" x="223.094774" xlink:href="#mb7b3f5de87" y="27.848114"/>
     <use style="fill:#bebada;stroke:#000000;stroke-linejoin:miter;stroke-width:0.5;" x="227.678913" xlink:href="#mb7b3f5de87" y="27.848114"/>
     <use style="fill:#bebada;stroke:#000000;stroke-linejoin:miter;stroke-width:0.5;" x="232.263052" xlink:href="#mb7b3f5de87" y="27.848114"/>
     <use style="fill:#bebada;stroke:#000000;stroke-linejoin:miter;stroke-width:0.5;" x="236.84719" xlink:href="#mb7b3f5de87" y="27.848114"/>
    </g>
   </g>
   <g id="line2d_11">
    <path clip-path="url(#pb25e149621)" d="M 48.8975 27.848114 
L 53.481639 27.848114 
L 58.065778 27.922241 
L 62.649916 29.44185 
L 67.234055 33.667105 
L 71.818194 39.986455 
L 76.402333 45.286555 
L 80.986472 50.049232 
L 85.57061 51.402055 
L 90.154749 50.401336 
L 94.738888 49.289427 
L 99.323027 48.826132 
L 103.907165 47.640095 
L 108.491304 47.547436 
L 113.075443 47.9922 
L 117.659582 49.993636 
L 122.243721 52.717814 
L 126.827859 56.127668 
L 131.411998 59.704309 
L 135.996137 63.410673 
L 140.580276 67.042909 
L 145.164415 69.507641 
L 149.748553 71.84265 
L 154.332692 74.307382 
L 158.916831 75.826991 
L 163.50097 77.439259 
L 168.085109 78.402914 
L 172.669247 79.7928 
L 177.253386 80.626732 
L 181.837525 81.460664 
L 186.421664 82.016618 
L 191.005802 82.405786 
L 195.589941 82.591105 
L 200.17408 82.813486 
L 204.758219 83.109995 
L 209.342358 83.202655 
L 213.926496 83.276782 
L 218.510635 83.332377 
L 223.094774 83.332377 
L 227.678913 83.332377 
L 232.263052 83.387973 
L 236.84719 83.387973 
" style="fill:none;stroke:#bebada;stroke-linecap:square;stroke-opacity:0.5;stroke-width:2;"/>
    <defs>
     <path d="M -2.5 2.5 
L 2.5 2.5 
L 2.5 -2.5 
L -2.5 -2.5 
z
" id="mbdbf4c3248" style="stroke:#000000;stroke-linejoin:miter;stroke-opacity:0.5;stroke-width:0.5;"/>
    </defs>
    <g clip-path="url(#pb25e149621)">
     <use style="fill:#bebada;fill-opacity:0.5;stroke:#000000;stroke-linejoin:miter;stroke-opacity:0.5;stroke-width:0.5;" x="48.8975" xlink:href="#mbdbf4c3248" y="27.848114"/>
     <use style="fill:#bebada;fill-opacity:0.5;stroke:#000000;stroke-linejoin:miter;stroke-opacity:0.5;stroke-width:0.5;" x="53.481639" xlink:href="#mbdbf4c3248" y="27.848114"/>
     <use style="fill:#bebada;fill-opacity:0.5;stroke:#000000;stroke-linejoin:miter;stroke-opacity:0.5;stroke-width:0.5;" x="58.065778" xlink:href="#mbdbf4c3248" y="27.922241"/>
     <use style="fill:#bebada;fill-opacity:0.5;stroke:#000000;stroke-linejoin:miter;stroke-opacity:0.5;stroke-width:0.5;" x="62.649916" xlink:href="#mbdbf4c3248" y="29.44185"/>
     <use style="fill:#bebada;fill-opacity:0.5;stroke:#000000;stroke-linejoin:miter;stroke-opacity:0.5;stroke-width:0.5;" x="67.234055" xlink:href="#mbdbf4c3248" y="33.667105"/>
     <use style="fill:#bebada;fill-opacity:0.5;stroke:#000000;stroke-linejoin:miter;stroke-opacity:0.5;stroke-width:0.5;" x="71.818194" xlink:href="#mbdbf4c3248" y="39.986455"/>
     <use style="fill:#bebada;fill-opacity:0.5;stroke:#000000;stroke-linejoin:miter;stroke-opacity:0.5;stroke-width:0.5;" x="76.402333" xlink:href="#mbdbf4c3248" y="45.286555"/>
     <use style="fill:#bebada;fill-opacity:0.5;stroke:#000000;stroke-linejoin:miter;stroke-opacity:0.5;stroke-width:0.5;" x="80.986472" xlink:href="#mbdbf4c3248" y="50.049232"/>
     <use style="fill:#bebada;fill-opacity:0.5;stroke:#000000;stroke-linejoin:miter;stroke-opacity:0.5;stroke-width:0.5;" x="85.57061" xlink:href="#mbdbf4c3248" y="51.402055"/>
     <use style="fill:#bebada;fill-opacity:0.5;stroke:#000000;stroke-linejoin:miter;stroke-opacity:0.5;stroke-width:0.5;" x="90.154749" xlink:href="#mbdbf4c3248" y="50.401336"/>
     <use style="fill:#bebada;fill-opacity:0.5;stroke:#000000;stroke-linejoin:miter;stroke-opacity:0.5;stroke-width:0.5;" x="94.738888" xlink:href="#mbdbf4c3248" y="49.289427"/>
     <use style="fill:#bebada;fill-opacity:0.5;stroke:#000000;stroke-linejoin:miter;stroke-opacity:0.5;stroke-width:0.5;" x="99.323027" xlink:href="#mbdbf4c3248" y="48.826132"/>
     <use style="fill:#bebada;fill-opacity:0.5;stroke:#000000;stroke-linejoin:miter;stroke-opacity:0.5;stroke-width:0.5;" x="103.907165" xlink:href="#mbdbf4c3248" y="47.640095"/>
     <use style="fill:#bebada;fill-opacity:0.5;stroke:#000000;stroke-linejoin:miter;stroke-opacity:0.5;stroke-width:0.5;" x="108.491304" xlink:href="#mbdbf4c3248" y="47.547436"/>
     <use style="fill:#bebada;fill-opacity:0.5;stroke:#000000;stroke-linejoin:miter;stroke-opacity:0.5;stroke-width:0.5;" x="113.075443" xlink:href="#mbdbf4c3248" y="47.9922"/>
     <use style="fill:#bebada;fill-opacity:0.5;stroke:#000000;stroke-linejoin:miter;stroke-opacity:0.5;stroke-width:0.5;" x="117.659582" xlink:href="#mbdbf4c3248" y="49.993636"/>
     <use style="fill:#bebada;fill-opacity:0.5;stroke:#000000;stroke-linejoin:miter;stroke-opacity:0.5;stroke-width:0.5;" x="122.243721" xlink:href="#mbdbf4c3248" y="52.717814"/>
     <use style="fill:#bebada;fill-opacity:0.5;stroke:#000000;stroke-linejoin:miter;stroke-opacity:0.5;stroke-width:0.5;" x="126.827859" xlink:href="#mbdbf4c3248" y="56.127668"/>
     <use style="fill:#bebada;fill-opacity:0.5;stroke:#000000;stroke-linejoin:miter;stroke-opacity:0.5;stroke-width:0.5;" x="131.411998" xlink:href="#mbdbf4c3248" y="59.704309"/>
     <use style="fill:#bebada;fill-opacity:0.5;stroke:#000000;stroke-linejoin:miter;stroke-opacity:0.5;stroke-width:0.5;" x="135.996137" xlink:href="#mbdbf4c3248" y="63.410673"/>
     <use style="fill:#bebada;fill-opacity:0.5;stroke:#000000;stroke-linejoin:miter;stroke-opacity:0.5;stroke-width:0.5;" x="140.580276" xlink:href="#mbdbf4c3248" y="67.042909"/>
     <use style="fill:#bebada;fill-opacity:0.5;stroke:#000000;stroke-linejoin:miter;stroke-opacity:0.5;stroke-width:0.5;" x="145.164415" xlink:href="#mbdbf4c3248" y="69.507641"/>
     <use style="fill:#bebada;fill-opacity:0.5;stroke:#000000;stroke-linejoin:miter;stroke-opacity:0.5;stroke-width:0.5;" x="149.748553" xlink:href="#mbdbf4c3248" y="71.84265"/>
     <use style="fill:#bebada;fill-opacity:0.5;stroke:#000000;stroke-linejoin:miter;stroke-opacity:0.5;stroke-width:0.5;" x="154.332692" xlink:href="#mbdbf4c3248" y="74.307382"/>
     <use style="fill:#bebada;fill-opacity:0.5;stroke:#000000;stroke-linejoin:miter;stroke-opacity:0.5;stroke-width:0.5;" x="158.916831" xlink:href="#mbdbf4c3248" y="75.826991"/>
     <use style="fill:#bebada;fill-opacity:0.5;stroke:#000000;stroke-linejoin:miter;stroke-opacity:0.5;stroke-width:0.5;" x="163.50097" xlink:href="#mbdbf4c3248" y="77.439259"/>
     <use style="fill:#bebada;fill-opacity:0.5;stroke:#000000;stroke-linejoin:miter;stroke-opacity:0.5;stroke-width:0.5;" x="168.085109" xlink:href="#mbdbf4c3248" y="78.402914"/>
     <use style="fill:#bebada;fill-opacity:0.5;stroke:#000000;stroke-linejoin:miter;stroke-opacity:0.5;stroke-width:0.5;" x="172.669247" xlink:href="#mbdbf4c3248" y="79.7928"/>
     <use style="fill:#bebada;fill-opacity:0.5;stroke:#000000;stroke-linejoin:miter;stroke-opacity:0.5;stroke-width:0.5;" x="177.253386" xlink:href="#mbdbf4c3248" y="80.626732"/>
     <use style="fill:#bebada;fill-opacity:0.5;stroke:#000000;stroke-linejoin:miter;stroke-opacity:0.5;stroke-width:0.5;" x="181.837525" xlink:href="#mbdbf4c3248" y="81.460664"/>
     <use style="fill:#bebada;fill-opacity:0.5;stroke:#000000;stroke-linejoin:miter;stroke-opacity:0.5;stroke-width:0.5;" x="186.421664" xlink:href="#mbdbf4c3248" y="82.016618"/>
     <use style="fill:#bebada;fill-opacity:0.5;stroke:#000000;stroke-linejoin:miter;stroke-opacity:0.5;stroke-width:0.5;" x="191.005802" xlink:href="#mbdbf4c3248" y="82.405786"/>
     <use style="fill:#bebada;fill-opacity:0.5;stroke:#000000;stroke-linejoin:miter;stroke-opacity:0.5;stroke-width:0.5;" x="195.589941" xlink:href="#mbdbf4c3248" y="82.591105"/>
     <use style="fill:#bebada;fill-opacity:0.5;stroke:#000000;stroke-linejoin:miter;stroke-opacity:0.5;stroke-width:0.5;" x="200.17408" xlink:href="#mbdbf4c3248" y="82.813486"/>
     <use style="fill:#bebada;fill-opacity:0.5;stroke:#000000;stroke-linejoin:miter;stroke-opacity:0.5;stroke-width:0.5;" x="204.758219" xlink:href="#mbdbf4c3248" y="83.109995"/>
     <use style="fill:#bebada;fill-opacity:0.5;stroke:#000000;stroke-linejoin:miter;stroke-opacity:0.5;stroke-width:0.5;" x="209.342358" xlink:href="#mbdbf4c3248" y="83.202655"/>
     <use style="fill:#bebada;fill-opacity:0.5;stroke:#000000;stroke-linejoin:miter;stroke-opacity:0.5;stroke-width:0.5;" x="213.926496" xlink:href="#mbdbf4c3248" y="83.276782"/>
     <use style="fill:#bebada;fill-opacity:0.5;stroke:#000000;stroke-linejoin:miter;stroke-opacity:0.5;stroke-width:0.5;" x="218.510635" xlink:href="#mbdbf4c3248" y="83.332377"/>
     <use style="fill:#bebada;fill-opacity:0.5;stroke:#000000;stroke-linejoin:miter;stroke-opacity:0.5;stroke-width:0.5;" x="223.094774" xlink:href="#mbdbf4c3248" y="83.332377"/>
     <use style="fill:#bebada;fill-opacity:0.5;stroke:#000000;stroke-linejoin:miter;stroke-opacity:0.5;stroke-width:0.5;" x="227.678913" xlink:href="#mbdbf4c3248" y="83.332377"/>
     <use style="fill:#bebada;fill-opacity:0.5;stroke:#000000;stroke-linejoin:miter;stroke-opacity:0.5;stroke-width:0.5;" x="232.263052" xlink:href="#mbdbf4c3248" y="83.387973"/>
     <use style="fill:#bebada;fill-opacity:0.5;stroke:#000000;stroke-linejoin:miter;stroke-opacity:0.5;stroke-width:0.5;" x="236.84719" xlink:href="#mbdbf4c3248" y="83.387973"/>
    </g>
   </g>
   <g id="line2d_12">
    <path clip-path="url(#pb25e149621)" d="M 48.8975 27.848114 
L 53.481639 27.848114 
L 58.065778 28.885895 
L 62.649916 40.672132 
L 67.234055 58.38855 
L 71.818194 70.61955 
L 76.402333 73.807023 
L 80.986472 71.583205 
L 85.57061 64.689368 
L 90.154749 57.57315 
L 94.738888 53.125514 
L 99.323027 50.012168 
L 103.907165 50.456932 
L 108.491304 51.346459 
L 113.075443 55.571714 
L 117.659582 59.574586 
L 122.243721 64.91175 
L 126.827859 69.730023 
L 131.411998 75.734332 
L 135.996137 81.664514 
L 140.580276 85.148495 
L 145.164415 88.335968 
L 149.748553 91.894077 
L 154.332692 93.747259 
L 158.916831 95.971077 
L 163.50097 97.231241 
L 168.085109 98.713786 
L 172.669247 99.751568 
L 177.253386 100.270459 
L 181.837525 100.863477 
L 186.421664 101.234114 
L 191.005802 101.530623 
L 195.589941 101.678877 
L 200.17408 101.753005 
L 204.758219 101.827132 
L 209.342358 101.827132 
L 213.926496 101.827132 
L 218.510635 101.827132 
L 223.094774 101.827132 
L 227.678913 101.975386 
L 232.263052 101.975386 
L 236.84719 101.975386 
" style="fill:none;stroke:#bebada;stroke-linecap:square;stroke-opacity:0.5;stroke-width:2;"/>
    <defs>
     <path d="M -2.5 -0 
L 2.5 2.5 
L 2.5 -2.5 
z
" id="m16ed82cf65" style="stroke:#000000;stroke-linejoin:miter;stroke-opacity:0.5;stroke-width:0.5;"/>
    </defs>
    <g clip-path="url(#pb25e149621)">
     <use style="fill:#bebada;fill-opacity:0.5;stroke:#000000;stroke-linejoin:miter;stroke-opacity:0.5;stroke-width:0.5;" x="48.8975" xlink:href="#m16ed82cf65" y="27.848114"/>
     <use style="fill:#bebada;fill-opacity:0.5;stroke:#000000;stroke-linejoin:miter;stroke-opacity:0.5;stroke-width:0.5;" x="53.481639" xlink:href="#m16ed82cf65" y="27.848114"/>
     <use style="fill:#bebada;fill-opacity:0.5;stroke:#000000;stroke-linejoin:miter;stroke-opacity:0.5;stroke-width:0.5;" x="58.065778" xlink:href="#m16ed82cf65" y="28.885895"/>
     <use style="fill:#bebada;fill-opacity:0.5;stroke:#000000;stroke-linejoin:miter;stroke-opacity:0.5;stroke-width:0.5;" x="62.649916" xlink:href="#m16ed82cf65" y="40.672132"/>
     <use style="fill:#bebada;fill-opacity:0.5;stroke:#000000;stroke-linejoin:miter;stroke-opacity:0.5;stroke-width:0.5;" x="67.234055" xlink:href="#m16ed82cf65" y="58.38855"/>
     <use style="fill:#bebada;fill-opacity:0.5;stroke:#000000;stroke-linejoin:miter;stroke-opacity:0.5;stroke-width:0.5;" x="71.818194" xlink:href="#m16ed82cf65" y="70.61955"/>
     <use style="fill:#bebada;fill-opacity:0.5;stroke:#000000;stroke-linejoin:miter;stroke-opacity:0.5;stroke-width:0.5;" x="76.402333" xlink:href="#m16ed82cf65" y="73.807023"/>
     <use style="fill:#bebada;fill-opacity:0.5;stroke:#000000;stroke-linejoin:miter;stroke-opacity:0.5;stroke-width:0.5;" x="80.986472" xlink:href="#m16ed82cf65" y="71.583205"/>
     <use style="fill:#bebada;fill-opacity:0.5;stroke:#000000;stroke-linejoin:miter;stroke-opacity:0.5;stroke-width:0.5;" x="85.57061" xlink:href="#m16ed82cf65" y="64.689368"/>
     <use style="fill:#bebada;fill-opacity:0.5;stroke:#000000;stroke-linejoin:miter;stroke-opacity:0.5;stroke-width:0.5;" x="90.154749" xlink:href="#m16ed82cf65" y="57.57315"/>
     <use style="fill:#bebada;fill-opacity:0.5;stroke:#000000;stroke-linejoin:miter;stroke-opacity:0.5;stroke-width:0.5;" x="94.738888" xlink:href="#m16ed82cf65" y="53.125514"/>
     <use style="fill:#bebada;fill-opacity:0.5;stroke:#000000;stroke-linejoin:miter;stroke-opacity:0.5;stroke-width:0.5;" x="99.323027" xlink:href="#m16ed82cf65" y="50.012168"/>
     <use style="fill:#bebada;fill-opacity:0.5;stroke:#000000;stroke-linejoin:miter;stroke-opacity:0.5;stroke-width:0.5;" x="103.907165" xlink:href="#m16ed82cf65" y="50.456932"/>
     <use style="fill:#bebada;fill-opacity:0.5;stroke:#000000;stroke-linejoin:miter;stroke-opacity:0.5;stroke-width:0.5;" x="108.491304" xlink:href="#m16ed82cf65" y="51.346459"/>
     <use style="fill:#bebada;fill-opacity:0.5;stroke:#000000;stroke-linejoin:miter;stroke-opacity:0.5;stroke-width:0.5;" x="113.075443" xlink:href="#m16ed82cf65" y="55.571714"/>
     <use style="fill:#bebada;fill-opacity:0.5;stroke:#000000;stroke-linejoin:miter;stroke-opacity:0.5;stroke-width:0.5;" x="117.659582" xlink:href="#m16ed82cf65" y="59.574586"/>
     <use style="fill:#bebada;fill-opacity:0.5;stroke:#000000;stroke-linejoin:miter;stroke-opacity:0.5;stroke-width:0.5;" x="122.243721" xlink:href="#m16ed82cf65" y="64.91175"/>
     <use style="fill:#bebada;fill-opacity:0.5;stroke:#000000;stroke-linejoin:miter;stroke-opacity:0.5;stroke-width:0.5;" x="126.827859" xlink:href="#m16ed82cf65" y="69.730023"/>
     <use style="fill:#bebada;fill-opacity:0.5;stroke:#000000;stroke-linejoin:miter;stroke-opacity:0.5;stroke-width:0.5;" x="131.411998" xlink:href="#m16ed82cf65" y="75.734332"/>
     <use style="fill:#bebada;fill-opacity:0.5;stroke:#000000;stroke-linejoin:miter;stroke-opacity:0.5;stroke-width:0.5;" x="135.996137" xlink:href="#m16ed82cf65" y="81.664514"/>
     <use style="fill:#bebada;fill-opacity:0.5;stroke:#000000;stroke-linejoin:miter;stroke-opacity:0.5;stroke-width:0.5;" x="140.580276" xlink:href="#m16ed82cf65" y="85.148495"/>
     <use style="fill:#bebada;fill-opacity:0.5;stroke:#000000;stroke-linejoin:miter;stroke-opacity:0.5;stroke-width:0.5;" x="145.164415" xlink:href="#m16ed82cf65" y="88.335968"/>
     <use style="fill:#bebada;fill-opacity:0.5;stroke:#000000;stroke-linejoin:miter;stroke-opacity:0.5;stroke-width:0.5;" x="149.748553" xlink:href="#m16ed82cf65" y="91.894077"/>
     <use style="fill:#bebada;fill-opacity:0.5;stroke:#000000;stroke-linejoin:miter;stroke-opacity:0.5;stroke-width:0.5;" x="154.332692" xlink:href="#m16ed82cf65" y="93.747259"/>
     <use style="fill:#bebada;fill-opacity:0.5;stroke:#000000;stroke-linejoin:miter;stroke-opacity:0.5;stroke-width:0.5;" x="158.916831" xlink:href="#m16ed82cf65" y="95.971077"/>
     <use style="fill:#bebada;fill-opacity:0.5;stroke:#000000;stroke-linejoin:miter;stroke-opacity:0.5;stroke-width:0.5;" x="163.50097" xlink:href="#m16ed82cf65" y="97.231241"/>
     <use style="fill:#bebada;fill-opacity:0.5;stroke:#000000;stroke-linejoin:miter;stroke-opacity:0.5;stroke-width:0.5;" x="168.085109" xlink:href="#m16ed82cf65" y="98.713786"/>
     <use style="fill:#bebada;fill-opacity:0.5;stroke:#000000;stroke-linejoin:miter;stroke-opacity:0.5;stroke-width:0.5;" x="172.669247" xlink:href="#m16ed82cf65" y="99.751568"/>
     <use style="fill:#bebada;fill-opacity:0.5;stroke:#000000;stroke-linejoin:miter;stroke-opacity:0.5;stroke-width:0.5;" x="177.253386" xlink:href="#m16ed82cf65" y="100.270459"/>
     <use style="fill:#bebada;fill-opacity:0.5;stroke:#000000;stroke-linejoin:miter;stroke-opacity:0.5;stroke-width:0.5;" x="181.837525" xlink:href="#m16ed82cf65" y="100.863477"/>
     <use style="fill:#bebada;fill-opacity:0.5;stroke:#000000;stroke-linejoin:miter;stroke-opacity:0.5;stroke-width:0.5;" x="186.421664" xlink:href="#m16ed82cf65" y="101.234114"/>
     <use style="fill:#bebada;fill-opacity:0.5;stroke:#000000;stroke-linejoin:miter;stroke-opacity:0.5;stroke-width:0.5;" x="191.005802" xlink:href="#m16ed82cf65" y="101.530623"/>
     <use style="fill:#bebada;fill-opacity:0.5;stroke:#000000;stroke-linejoin:miter;stroke-opacity:0.5;stroke-width:0.5;" x="195.589941" xlink:href="#m16ed82cf65" y="101.678877"/>
     <use style="fill:#bebada;fill-opacity:0.5;stroke:#000000;stroke-linejoin:miter;stroke-opacity:0.5;stroke-width:0.5;" x="200.17408" xlink:href="#m16ed82cf65" y="101.753005"/>
     <use style="fill:#bebada;fill-opacity:0.5;stroke:#000000;stroke-linejoin:miter;stroke-opacity:0.5;stroke-width:0.5;" x="204.758219" xlink:href="#m16ed82cf65" y="101.827132"/>
     <use style="fill:#bebada;fill-opacity:0.5;stroke:#000000;stroke-linejoin:miter;stroke-opacity:0.5;stroke-width:0.5;" x="209.342358" xlink:href="#m16ed82cf65" y="101.827132"/>
     <use style="fill:#bebada;fill-opacity:0.5;stroke:#000000;stroke-linejoin:miter;stroke-opacity:0.5;stroke-width:0.5;" x="213.926496" xlink:href="#m16ed82cf65" y="101.827132"/>
     <use style="fill:#bebada;fill-opacity:0.5;stroke:#000000;stroke-linejoin:miter;stroke-opacity:0.5;stroke-width:0.5;" x="218.510635" xlink:href="#m16ed82cf65" y="101.827132"/>
     <use style="fill:#bebada;fill-opacity:0.5;stroke:#000000;stroke-linejoin:miter;stroke-opacity:0.5;stroke-width:0.5;" x="223.094774" xlink:href="#m16ed82cf65" y="101.827132"/>
     <use style="fill:#bebada;fill-opacity:0.5;stroke:#000000;stroke-linejoin:miter;stroke-opacity:0.5;stroke-width:0.5;" x="227.678913" xlink:href="#m16ed82cf65" y="101.975386"/>
     <use style="fill:#bebada;fill-opacity:0.5;stroke:#000000;stroke-linejoin:miter;stroke-opacity:0.5;stroke-width:0.5;" x="232.263052" xlink:href="#m16ed82cf65" y="101.975386"/>
     <use style="fill:#bebada;fill-opacity:0.5;stroke:#000000;stroke-linejoin:miter;stroke-opacity:0.5;stroke-width:0.5;" x="236.84719" xlink:href="#m16ed82cf65" y="101.975386"/>
    </g>
   </g>
   <g id="patch_3">
    <path d="M 48.8975 105.68175 
L 48.8975 24.14175 
" style="fill:none;stroke:#000000;stroke-linecap:square;stroke-linejoin:miter;stroke-width:0.8;"/>
   </g>
   <g id="patch_4">
    <path d="M 199.5575 105.68175 
L 199.5575 24.14175 
" style="fill:none;stroke:#000000;stroke-linecap:square;stroke-linejoin:miter;stroke-width:0.8;"/>
   </g>
   <g id="patch_5">
    <path d="M 48.8975 105.68175 
L 199.5575 105.68175 
" style="fill:none;stroke:#000000;stroke-linecap:square;stroke-linejoin:miter;stroke-width:0.8;"/>
   </g>
   <g id="patch_6">
    <path d="M 48.8975 24.14175 
L 199.5575 24.14175 
" style="fill:none;stroke:#000000;stroke-linecap:square;stroke-linejoin:miter;stroke-width:0.8;"/>
   </g>
   <g id="text_11">
    <!-- Alpelisib=1, Rb=WT vs Rb=0 -->
    <defs>
     <path d="M 34.1875 63.1875 
L 20.796875 26.90625 
L 47.609375 26.90625 
z
M 28.609375 72.90625 
L 39.796875 72.90625 
L 67.578125 0 
L 57.328125 0 
L 50.6875 18.703125 
L 17.828125 18.703125 
L 11.1875 0 
L 0.78125 0 
z
" id="DejaVuSans-65"/>
     <path d="M 9.421875 75.984375 
L 18.40625 75.984375 
L 18.40625 0 
L 9.421875 0 
z
" id="DejaVuSans-108"/>
     <path d="M 18.109375 8.203125 
L 18.109375 -20.796875 
L 9.078125 -20.796875 
L 9.078125 54.6875 
L 18.109375 54.6875 
L 18.109375 46.390625 
Q 20.953125 51.265625 25.265625 53.625 
Q 29.59375 56 35.59375 56 
Q 45.5625 56 51.78125 48.09375 
Q 58.015625 40.1875 58.015625 27.296875 
Q 58.015625 14.40625 51.78125 6.484375 
Q 45.5625 -1.421875 35.59375 -1.421875 
Q 29.59375 -1.421875 25.265625 0.953125 
Q 20.953125 3.328125 18.109375 8.203125 
z
M 48.6875 27.296875 
Q 48.6875 37.203125 44.609375 42.84375 
Q 40.53125 48.484375 33.40625 48.484375 
Q 26.265625 48.484375 22.1875 42.84375 
Q 18.109375 37.203125 18.109375 27.296875 
Q 18.109375 17.390625 22.1875 11.75 
Q 26.265625 6.109375 33.40625 6.109375 
Q 40.53125 6.109375 44.609375 11.75 
Q 48.6875 17.390625 48.6875 27.296875 
z
" id="DejaVuSans-112"/>
     <path d="M 44.28125 53.078125 
L 44.28125 44.578125 
Q 40.484375 46.53125 36.375 47.5 
Q 32.28125 48.484375 27.875 48.484375 
Q 21.1875 48.484375 17.84375 46.4375 
Q 14.5 44.390625 14.5 40.28125 
Q 14.5 37.15625 16.890625 35.375 
Q 19.28125 33.59375 26.515625 31.984375 
L 29.59375 31.296875 
Q 39.15625 29.25 43.1875 25.515625 
Q 47.21875 21.78125 47.21875 15.09375 
Q 47.21875 7.46875 41.1875 3.015625 
Q 35.15625 -1.421875 24.609375 -1.421875 
Q 20.21875 -1.421875 15.453125 -0.5625 
Q 10.6875 0.296875 5.421875 2 
L 5.421875 11.28125 
Q 10.40625 8.6875 15.234375 7.390625 
Q 20.0625 6.109375 24.8125 6.109375 
Q 31.15625 6.109375 34.5625 8.28125 
Q 37.984375 10.453125 37.984375 14.40625 
Q 37.984375 18.0625 35.515625 20.015625 
Q 33.0625 21.96875 24.703125 23.78125 
L 21.578125 24.515625 
Q 13.234375 26.265625 9.515625 29.90625 
Q 5.8125 33.546875 5.8125 39.890625 
Q 5.8125 47.609375 11.28125 51.796875 
Q 16.75 56 26.8125 56 
Q 31.78125 56 36.171875 55.265625 
Q 40.578125 54.546875 44.28125 53.078125 
z
" id="DejaVuSans-115"/>
     <path d="M 48.6875 27.296875 
Q 48.6875 37.203125 44.609375 42.84375 
Q 40.53125 48.484375 33.40625 48.484375 
Q 26.265625 48.484375 22.1875 42.84375 
Q 18.109375 37.203125 18.109375 27.296875 
Q 18.109375 17.390625 22.1875 11.75 
Q 26.265625 6.109375 33.40625 6.109375 
Q 40.53125 6.109375 44.609375 11.75 
Q 48.6875 17.390625 48.6875 27.296875 
z
M 18.109375 46.390625 
Q 20.953125 51.265625 25.265625 53.625 
Q 29.59375 56 35.59375 56 
Q 45.5625 56 51.78125 48.09375 
Q 58.015625 40.1875 58.015625 27.296875 
Q 58.015625 14.40625 51.78125 6.484375 
Q 45.5625 -1.421875 35.59375 -1.421875 
Q 29.59375 -1.421875 25.265625 0.953125 
Q 20.953125 3.328125 18.109375 8.203125 
L 18.109375 0 
L 9.078125 0 
L 9.078125 75.984375 
L 18.109375 75.984375 
z
" id="DejaVuSans-98"/>
     <path d="M 10.59375 45.40625 
L 73.1875 45.40625 
L 73.1875 37.203125 
L 10.59375 37.203125 
z
M 10.59375 25.484375 
L 73.1875 25.484375 
L 73.1875 17.1875 
L 10.59375 17.1875 
z
" id="DejaVuSans-61"/>
     <path d="M 11.71875 12.40625 
L 22.015625 12.40625 
L 22.015625 4 
L 14.015625 -11.625 
L 7.71875 -11.625 
L 11.71875 4 
z
" id="DejaVuSans-44"/>
     <path d="M 44.390625 34.1875 
Q 47.5625 33.109375 50.5625 29.59375 
Q 53.5625 26.078125 56.59375 19.921875 
L 66.609375 0 
L 56 0 
L 46.6875 18.703125 
Q 43.0625 26.03125 39.671875 28.421875 
Q 36.28125 30.8125 30.421875 30.8125 
L 19.671875 30.8125 
L 19.671875 0 
L 9.8125 0 
L 9.8125 72.90625 
L 32.078125 72.90625 
Q 44.578125 72.90625 50.734375 67.671875 
Q 56.890625 62.453125 56.890625 51.90625 
Q 56.890625 45.015625 53.6875 40.46875 
Q 50.484375 35.9375 44.390625 34.1875 
z
M 19.671875 64.796875 
L 19.671875 38.921875 
L 32.078125 38.921875 
Q 39.203125 38.921875 42.84375 42.21875 
Q 46.484375 45.515625 46.484375 51.90625 
Q 46.484375 58.296875 42.84375 61.546875 
Q 39.203125 64.796875 32.078125 64.796875 
z
" id="DejaVuSans-82"/>
     <path d="M 3.328125 72.90625 
L 13.28125 72.90625 
L 28.609375 11.28125 
L 43.890625 72.90625 
L 54.984375 72.90625 
L 70.3125 11.28125 
L 85.59375 72.90625 
L 95.609375 72.90625 
L 77.296875 0 
L 64.890625 0 
L 49.515625 63.28125 
L 33.984375 0 
L 21.578125 0 
z
" id="DejaVuSans-87"/>
    </defs>
    <g transform="translate(18.887 18.14175)scale(0.144 -0.144)">
     <use xlink:href="#DejaVuSans-65"/>
     <use x="68.408203" xlink:href="#DejaVuSans-108"/>
     <use x="96.191406" xlink:href="#DejaVuSans-112"/>
     <use x="159.667969" xlink:href="#DejaVuSans-101"/>
     <use x="221.191406" xlink:href="#DejaVuSans-108"/>
     <use x="248.974609" xlink:href="#DejaVuSans-105"/>
     <use x="276.757812" xlink:href="#DejaVuSans-115"/>
     <use x="328.857422" xlink:href="#DejaVuSans-105"/>
     <use x="356.640625" xlink:href="#DejaVuSans-98"/>
     <use x="420.117188" xlink:href="#DejaVuSans-61"/>
     <use x="503.90625" xlink:href="#DejaVuSans-49"/>
     <use x="567.529297" xlink:href="#DejaVuSans-44"/>
     <use x="599.316406" xlink:href="#DejaVuSans-32"/>
     <use x="631.103516" xlink:href="#DejaVuSans-82"/>
     <use x="700.585938" xlink:href="#DejaVuSans-98"/>
     <use x="764.0625" xlink:href="#DejaVuSans-61"/>
     <use x="847.851562" xlink:href="#DejaVuSans-87"/>
     <use x="946.728516" xlink:href="#DejaVuSans-84"/>
     <use x="1007.8125" xlink:href="#DejaVuSans-32"/>
     <use x="1039.599609" xlink:href="#DejaVuSans-118"/>
     <use x="1098.779297" xlink:href="#DejaVuSans-115"/>
     <use x="1150.878906" xlink:href="#DejaVuSans-32"/>
     <use x="1182.666016" xlink:href="#DejaVuSans-82"/>
     <use x="1252.148438" xlink:href="#DejaVuSans-98"/>
     <use x="1315.625" xlink:href="#DejaVuSans-61"/>
     <use x="1399.414062" xlink:href="#DejaVuSans-48"/>
    </g>
   </g>
   <g id="legend_1">
    <g id="patch_7">
     <path d="M 209.4641 67.33845 
L 320.91785 67.33845 
Q 323.31785 67.33845 323.31785 64.93845 
L 323.31785 30.91095 
Q 323.31785 28.51095 320.91785 28.51095 
L 209.4641 28.51095 
Q 207.0641 28.51095 207.0641 30.91095 
L 207.0641 64.93845 
Q 207.0641 67.33845 209.4641 67.33845 
z
" style="fill:#ffffff;opacity:0.8;stroke:#cccccc;stroke-linejoin:miter;"/>
    </g>
    <g id="line2d_13">
     <path d="M 211.8641 38.229075 
L 235.8641 38.229075 
" style="fill:none;stroke:#bebada;stroke-linecap:square;stroke-width:2;"/>
    </g>
    <g id="line2d_14">
     <g>
      <use style="fill:#bebada;stroke:#000000;stroke-linejoin:miter;stroke-width:0.5;" x="223.8641" xlink:href="#m61814a4a46" y="38.229075"/>
     </g>
    </g>
    <g id="text_12">
     <!-- Proliferation -->
     <defs>
      <path d="M 19.671875 64.796875 
L 19.671875 37.40625 
L 32.078125 37.40625 
Q 38.96875 37.40625 42.71875 40.96875 
Q 46.484375 44.53125 46.484375 51.125 
Q 46.484375 57.671875 42.71875 61.234375 
Q 38.96875 64.796875 32.078125 64.796875 
z
M 9.8125 72.90625 
L 32.078125 72.90625 
Q 44.34375 72.90625 50.609375 67.359375 
Q 56.890625 61.8125 56.890625 51.125 
Q 56.890625 40.328125 50.609375 34.8125 
Q 44.34375 29.296875 32.078125 29.296875 
L 19.671875 29.296875 
L 19.671875 0 
L 9.8125 0 
z
" id="DejaVuSans-80"/>
      <path d="M 41.109375 46.296875 
Q 39.59375 47.171875 37.8125 47.578125 
Q 36.03125 48 33.890625 48 
Q 26.265625 48 22.1875 43.046875 
Q 18.109375 38.09375 18.109375 28.8125 
L 18.109375 0 
L 9.078125 0 
L 9.078125 54.6875 
L 18.109375 54.6875 
L 18.109375 46.1875 
Q 20.953125 51.171875 25.484375 53.578125 
Q 30.03125 56 36.53125 56 
Q 37.453125 56 38.578125 55.875 
Q 39.703125 55.765625 41.0625 55.515625 
z
" id="DejaVuSans-114"/>
      <path d="M 37.109375 75.984375 
L 37.109375 68.5 
L 28.515625 68.5 
Q 23.6875 68.5 21.796875 66.546875 
Q 19.921875 64.59375 19.921875 59.515625 
L 19.921875 54.6875 
L 34.71875 54.6875 
L 34.71875 47.703125 
L 19.921875 47.703125 
L 19.921875 0 
L 10.890625 0 
L 10.890625 47.703125 
L 2.296875 47.703125 
L 2.296875 54.6875 
L 10.890625 54.6875 
L 10.890625 58.5 
Q 10.890625 67.625 15.140625 71.796875 
Q 19.390625 75.984375 28.609375 75.984375 
z
" id="DejaVuSans-102"/>
      <path d="M 54.890625 33.015625 
L 54.890625 0 
L 45.90625 0 
L 45.90625 32.71875 
Q 45.90625 40.484375 42.875 44.328125 
Q 39.84375 48.1875 33.796875 48.1875 
Q 26.515625 48.1875 22.3125 43.546875 
Q 18.109375 38.921875 18.109375 30.90625 
L 18.109375 0 
L 9.078125 0 
L 9.078125 54.6875 
L 18.109375 54.6875 
L 18.109375 46.1875 
Q 21.34375 51.125 25.703125 53.5625 
Q 30.078125 56 35.796875 56 
Q 45.21875 56 50.046875 50.171875 
Q 54.890625 44.34375 54.890625 33.015625 
z
" id="DejaVuSans-110"/>
     </defs>
     <g transform="translate(245.4641 42.429075)scale(0.12 -0.12)">
      <use xlink:href="#DejaVuSans-80"/>
      <use x="60.287109" xlink:href="#DejaVuSans-114"/>
      <use x="101.369141" xlink:href="#DejaVuSans-111"/>
      <use x="162.550781" xlink:href="#DejaVuSans-108"/>
      <use x="190.333984" xlink:href="#DejaVuSans-105"/>
      <use x="218.117188" xlink:href="#DejaVuSans-102"/>
      <use x="253.322266" xlink:href="#DejaVuSans-101"/>
      <use x="314.845703" xlink:href="#DejaVuSans-114"/>
      <use x="355.958984" xlink:href="#DejaVuSans-97"/>
      <use x="417.238281" xlink:href="#DejaVuSans-116"/>
      <use x="456.447266" xlink:href="#DejaVuSans-105"/>
      <use x="484.230469" xlink:href="#DejaVuSans-111"/>
      <use x="545.412109" xlink:href="#DejaVuSans-110"/>
     </g>
    </g>
    <g id="line2d_15">
     <path d="M 211.8641 55.842825 
L 235.8641 55.842825 
" style="fill:none;stroke:#bebada;stroke-linecap:square;stroke-width:2;"/>
    </g>
    <g id="line2d_16">
     <g>
      <use style="fill:#bebada;stroke:#000000;stroke-linejoin:miter;stroke-width:0.5;" x="223.8641" xlink:href="#mb7b3f5de87" y="55.842825"/>
     </g>
    </g>
    <g id="text_13">
     <!-- pRB1=2 -->
     <defs>
      <path d="M 19.671875 34.8125 
L 19.671875 8.109375 
L 35.5 8.109375 
Q 43.453125 8.109375 47.28125 11.40625 
Q 51.125 14.703125 51.125 21.484375 
Q 51.125 28.328125 47.28125 31.5625 
Q 43.453125 34.8125 35.5 34.8125 
z
M 19.671875 64.796875 
L 19.671875 42.828125 
L 34.28125 42.828125 
Q 41.5 42.828125 45.03125 45.53125 
Q 48.578125 48.25 48.578125 53.8125 
Q 48.578125 59.328125 45.03125 62.0625 
Q 41.5 64.796875 34.28125 64.796875 
z
M 9.8125 72.90625 
L 35.015625 72.90625 
Q 46.296875 72.90625 52.390625 68.21875 
Q 58.5 63.53125 58.5 54.890625 
Q 58.5 48.1875 55.375 44.234375 
Q 52.25 40.28125 46.1875 39.3125 
Q 53.46875 37.75 57.5 32.78125 
Q 61.53125 27.828125 61.53125 20.40625 
Q 61.53125 10.640625 54.890625 5.3125 
Q 48.25 0 35.984375 0 
L 9.8125 0 
z
" id="DejaVuSans-66"/>
     </defs>
     <g transform="translate(245.4641 60.042825)scale(0.12 -0.12)">
      <use xlink:href="#DejaVuSans-112"/>
      <use x="63.476562" xlink:href="#DejaVuSans-82"/>
      <use x="132.958984" xlink:href="#DejaVuSans-66"/>
      <use x="201.5625" xlink:href="#DejaVuSans-49"/>
      <use x="265.185547" xlink:href="#DejaVuSans-61"/>
      <use x="348.974609" xlink:href="#DejaVuSans-50"/>
     </g>
    </g>
   </g>
  </g>
 </g>
 <defs>
  <clipPath id="pb25e149621">
   <rect height="81.54" width="150.66" x="48.8975" y="24.14175"/>
  </clipPath>
 </defs>
</svg>
